<?xml version="1.0" encoding="UTF-8" standalone="no"?>
<svg
   class="svg-icon"
   style="overflow:hidden;fill:currentColor"
   viewBox="0 0 118 118"
   version="1.1"
   id="svg1"
   sodipodi:docname="speech-to-text-off.svg"
   inkscape:version="1.4 (e7c3feb100, 2024-10-09)"
   width="118"
   height="118"
   xmlns:inkscape="http://www.inkscape.org/namespaces/inkscape"
   xmlns:sodipodi="http://sodipodi.sourceforge.net/DTD/sodipodi-0.dtd"
   xmlns="http://www.w3.org/2000/svg"
   xmlns:svg="http://www.w3.org/2000/svg">
  <defs
     id="defs1" />
  <sodipodi:namedview
     id="namedview1"
     pagecolor="#ffffff"
     bordercolor="#000000"
     borderopacity="0.25"
     inkscape:showpageshadow="2"
     inkscape:pageopacity="0.0"
     inkscape:pagecheckerboard="0"
     inkscape:deskcolor="#d1d1d1"
     inkscape:zoom="1.1640625"
     inkscape:cx="457.44966"
     inkscape:cy="444.99329"
     inkscape:window-width="2560"
     inkscape:window-height="1403"
     inkscape:window-x="0"
     inkscape:window-y="0"
     inkscape:window-maximized="1"
     inkscape:current-layer="svg1" />
  <g
     id="g1"
     transform="translate(-85.333333,-85.333333)">
    <path
       d="m 85.333333,104.62633 7.552,-7.492997 98.647997,98.647997 -7.493,7.552 -31.565,-31.565 a 35.4,35.4 0 0 1 -25.842,19.293 v 12.272 h -11.8 v -12.272 c -16.755997,-2.832 -29.499997,-17.405 -29.499997,-34.928 h 11.8 a 23.6,23.6 0 0 0 23.599997,23.6 c 10.738,0 19.824,-7.198 22.656,-17.051 l -10.856,-10.856 v 4.307 a 11.8,11.8 0 0 1 -11.8,11.8 11.8,11.8 0 0 1 -11.8,-11.8 v -27.907 l -23.599997,-23.6 m 114.518997,24.426 -25.016,25.075 5.959,-21.594 h -24.662 a 11.8,11.8 0 0 1 -11.8,-11.8 V 97.133333 a 11.8,11.8 0 0 1 11.8,-11.8 h 35.4 a 11.8,11.8 0 0 1 11.8,11.8 v 23.599997 c 0,3.245 -1.298,6.195 -3.481,8.319 z"
       fill=""
       id="path1"
       style="stroke-width:0.138281" />
    <path
       style="fill:#ffffff;stroke-width:0.118792"
       d="m 114.93233,197.14478 v -6.10937 l -0.68306,-0.13691 c -10.2504,-2.05456 -18.633875,-7.96663 -23.982408,-16.91252 -2.883684,-4.82321 -4.506881,-10.32296 -4.851227,-16.43704 l -0.07527,-1.33641 h 5.886582 5.886583 v 0.82546 c 0,2.00403 0.626683,5.13884 1.485454,7.43058 2.371956,6.32987 7.352186,11.32698 13.751976,13.79858 4.20541,1.62413 9.62509,1.93714 14.10419,0.81458 5.84862,-1.4658 10.8499,-5.05242 14.16525,-10.15846 1.06612,-1.64197 2.40674,-4.53318 2.76382,-5.96053 0.0737,-0.29442 -0.32278,-0.72018 -5.36458,-5.76141 l -5.44412,-5.4435 -0.0755,2.9104 c -0.0897,3.46153 -0.25891,4.43087 -1.1086,6.35215 -0.69121,1.56296 -2.14119,3.35537 -3.62961,4.4868 -1.00011,0.76023 -2.88024,1.66938 -4.15772,2.01051 -1.41196,0.37703 -4.35698,0.38087 -5.71941,0.007 -2.71078,-0.74297 -5.13307,-2.40674 -6.69911,-4.60134 -0.71205,-0.99785 -1.52948,-2.74988 -1.8589,-3.98424 l -0.2681,-1.00455 -0.0404,-14.90839 -0.0404,-14.90839 -11.750159,-11.76041 -11.750154,-11.7604 3.679834,-3.6824 3.679834,-3.682407 49.298245,49.298127 49.29824,49.29814 -3.65181,3.65323 c -2.00849,2.00928 -3.67886,3.65299 -3.71192,3.65269 -0.0331,-2.9e-4 -7.13148,-7.05654 -15.77425,-15.68053 -8.64278,-8.624 -15.75248,-15.67902 -15.79933,-15.67782 -0.0469,10e-4 -0.37921,0.54713 -0.73855,1.21319 -1.5838,2.93563 -3.58987,5.60293 -6.10726,8.12032 -5.21245,5.21245 -11.01127,8.25164 -18.80935,9.85807 l -0.26728,0.0551 v 6.11553 6.11552 h -5.82081 -5.8208 z"
       id="path2" />
    <path
       style="fill:#ffffff;stroke-width:0.118792"
       d="m 175.04156,153.71053 c -2.7e-4,-0.0367 1.30917,-4.81394 2.90989,-10.61604 1.60072,-5.8021 2.91041,-10.56823 2.91041,-10.59138 0,-0.0232 -6.00048,-0.0576 -13.3344,-0.0766 -13.27505,-0.0343 -13.33844,-0.0356 -14.24273,-0.2924 -2.75638,-0.78266 -5.13036,-2.41986 -6.70995,-4.62748 -0.72493,-1.01315 -1.53069,-2.7656 -1.85224,-4.02842 l -0.27042,-1.06199 V 108.93333 95.450447 l 0.27042,-1.061994 c 0.32108,-1.26099 1.12639,-3.013422 1.85121,-4.028421 1.62842,-2.280351 4.23552,-4.030852 6.96596,-4.677204 0.83445,-0.197532 2.12619,-0.210904 20.37282,-0.210904 h 19.48188 l 1.00973,0.276503 c 4.13776,1.133081 7.27458,4.221448 8.44515,8.31471 0.44985,1.573045 0.47935,2.634478 0.43478,15.642343 -0.0482,14.06829 5.6e-4,13.23863 -0.90818,15.45245 -0.88543,2.15704 -0.60201,1.8488 -14.46355,15.73044 -7.07865,7.08891 -12.8705,12.85888 -12.87078,12.82216 z"
       id="path3" />
  </g>
</svg>
