<?xml version="1.0" encoding="UTF-8" standalone="no"?>
<svg
   class="svg-icon"
   style="width: 1em; height: 1em;vertical-align: middle;fill: currentColor;overflow: hidden;"
   viewBox="0 0 1024 1024"
   version="1.1"
   id="svg1"
   sodipodi:docname="text-to-speech-off.svg"
   inkscape:version="1.4 (e7c3feb100, 2024-10-09)"
   xmlns:inkscape="http://www.inkscape.org/namespaces/inkscape"
   xmlns:sodipodi="http://sodipodi.sourceforge.net/DTD/sodipodi-0.dtd"
   xmlns="http://www.w3.org/2000/svg"
   xmlns:svg="http://www.w3.org/2000/svg">
  <defs
     id="defs1" />
  <sodipodi:namedview
     id="namedview1"
     pagecolor="#ffffff"
     bordercolor="#000000"
     borderopacity="0.25"
     inkscape:showpageshadow="2"
     inkscape:pageopacity="0.0"
     inkscape:pagecheckerboard="0"
     inkscape:deskcolor="#d1d1d1"
     inkscape:zoom="1.1640625"
     inkscape:cx="511.57047"
     inkscape:cy="512"
     inkscape:window-width="2560"
     inkscape:window-height="1403"
     inkscape:window-x="0"
     inkscape:window-y="0"
     inkscape:window-maximized="1"
     inkscape:current-layer="svg1" />
  <path
     d="M85.333333 224.853333L139.946667 170.666667 853.333333 884.053333 799.146667 938.666667l-228.266667-228.266667A256 256 0 0 1 384 849.92V938.666667H298.666667v-88.746667c-121.173333-20.48-213.333333-125.866667-213.333334-252.586667h85.333334a170.666667 170.666667 0 0 0 170.666666 170.666667c77.653333 0 143.36-52.053333 163.84-123.306667L426.666667 566.186667V597.333333a85.333333 85.333333 0 0 1-85.333334 85.333334 85.333333 85.333333 0 0 1-85.333333-85.333334V395.52l-170.666667-170.666667m828.16 176.64l-180.906666 181.333334L775.68 426.666667H597.333333a85.333333 85.333333 0 0 1-85.333333-85.333334V170.666667a85.333333 85.333333 0 0 1 85.333333-85.333334h256a85.333333 85.333333 0 0 1 85.333334 85.333334v170.666666c0 23.466667-9.386667 44.8-25.173334 60.16z"
     fill=""
     id="path1" />
  <path
     style="fill:#ffffff;stroke-width:0.85906"
     d="m 299.38255,893.91326 v -44.18071 l -4.9396,-0.99008 C 220.31575,833.88461 159.68949,791.13067 121.01083,726.43725 100.15707,691.55753 88.418699,651.78529 85.928514,607.57047 l -0.544302,-9.66443 h 42.569638 42.56964 v 5.96942 c 0,14.49242 4.53194,37.16224 10.74226,53.73528 17.15312,45.77535 53.16833,81.91261 99.44929,99.78633 30.41201,11.74514 69.60516,14.00871 101.99637,5.89074 42.29515,-10.60011 78.46262,-36.53723 102.43798,-73.46231 7.70982,-11.87409 17.40467,-32.78226 19.98695,-43.10439 0.53264,-2.12912 -2.33422,-5.20806 -38.79472,-41.66443 l -39.36986,-39.3654 -0.54565,21.04698 c -0.64898,25.03253 -1.87236,32.04242 -8.01696,45.93646 -4.99862,11.30276 -15.48436,24.26482 -26.24808,32.44685 -7.2324,5.49771 -20.82883,12.07242 -30.06711,14.53931 -10.21074,2.72655 -31.50809,2.75433 -41.36068,0.0539 -19.60343,-5.37289 -37.12054,-17.40466 -48.44554,-33.27523 -5.14927,-7.21607 -11.06068,-19.88612 -13.44293,-28.81257 l -1.93875,-7.2646 L 256.614,502.5503 256.32194,394.73822 171.34906,309.69124 86.37619,224.64426 112.98742,198.01444 139.59865,171.38462 496.10568,527.89088 852.61272,884.39715 826.20418,910.816 C 811.67948,925.34641 799.6,937.23313 799.3609,937.23097 799.1218,937.22882 747.78865,886.20063 685.28722,823.835 622.7858,761.46937 571.37104,710.45003 571.03219,710.45869 c -0.33885,0.009 -2.74226,3.95667 -5.34091,8.77337 -11.45348,21.22938 -25.96062,40.51832 -44.16553,58.72322 -37.69451,37.69452 -79.62949,59.67285 -136.02239,71.29001 l -1.93289,0.39818 v 44.22524 44.22525 h -42.09396 -42.09396 z"
     id="path2" />
  <path
     style="fill:#ffffff;stroke-width:0.85906"
     d="m 734.07081,579.81248 c -0.002,-0.26554 9.46745,-34.81265 21.04328,-76.77135 11.57584,-41.95871 21.04698,-76.42558 21.04698,-76.59306 0,-0.16747 -43.39328,-0.41673 -96.42953,-0.5539 -96.00039,-0.2483 -96.45876,-0.2577 -102.99826,-2.11455 -19.93315,-5.6599 -37.10094,-17.49954 -48.52395,-33.46422 -5.24241,-7.32674 -11.06941,-19.99983 -13.39474,-29.1321 l -1.95553,-7.67994 V 256 158.49664 l 1.95553,-7.67995 c 2.32196,-9.11903 8.14567,-21.79198 13.38731,-29.13209 11.77615,-16.49067 30.62972,-29.149663 50.37528,-33.823849 6.03444,-1.428476 15.37583,-1.525181 147.32886,-1.525181 h 140.88591 l 7.30201,1.999575 c 29.92282,8.194027 52.60715,30.527985 61.07227,60.128975 3.25316,11.37569 3.46652,19.05159 3.14421,113.11977 -0.34857,101.73679 0.004,95.737 -6.56763,111.74655 -6.40313,15.59891 -4.35354,13.3698 -104.59521,113.75681 -51.19021,51.26443 -93.07476,92.99079 -93.07679,92.72523 z"
     id="path3" />
</svg>
