<svg class="svg-icon" style="width: 1em; height: 1em;vertical-align: middle;fill: currentColor;overflow: hidden;" viewBox="0 0 1024 1024" version="1.1" xmlns="http://www.w3.org/2000/svg"><path d="M85.333333 224.853333L139.946667 170.666667 853.333333 884.053333 799.146667 938.666667l-228.266667-228.266667A256 256 0 0 1 384 849.92V938.666667H298.666667v-88.746667c-121.173333-20.48-213.333333-125.866667-213.333334-252.586667h85.333334a170.666667 170.666667 0 0 0 170.666666 170.666667c77.653333 0 143.36-52.053333 163.84-123.306667L426.666667 566.186667V597.333333a85.333333 85.333333 0 0 1-85.333334 85.333334 85.333333 85.333333 0 0 1-85.333333-85.333334V395.52l-170.666667-170.666667m828.16 176.64l-180.906666 181.333334L775.68 426.666667H597.333333a85.333333 85.333333 0 0 1-85.333333-85.333334V170.666667a85.333333 85.333333 0 0 1 85.333333-85.333334h256a85.333333 85.333333 0 0 1 85.333334 85.333334v170.666666c0 23.466667-9.386667 44.8-25.173334 60.16z" fill="" /></svg>